<svg width="147" height="19" viewBox="0 0 147 19" fill="none" xmlns="http://www.w3.org/2000/svg">
<path d="M9.96 18.48C3.96 18.48 0.72 14.28 0.72 9.6C0.72 4.92 3.96 0.719999 9.96 0.719999C14.88 0.719999 17.88 3.6 18.48 6.12L15.36 6.48C14.88 4.92 12.6 3.6 9.96 3.6C6.36 3.6 3.84 6.24 3.84 9.6C3.84 12.96 6.36 15.6 9.96 15.6C13.56 15.6 15.6 13.56 15.6 13.56V11.64H11.4V8.88H18.48V18H15.6V16.8C15.6 16.8 13.44 18.48 9.96 18.48ZM19.6697 18L25.4297 1.2H32.6297L38.3897 18H35.1497L33.3497 12.72L24.2297 14.28L22.9097 18H19.6697ZM25.1897 11.28L32.3897 10.08L30.3497 4.08H27.7097L25.1897 11.28ZM47.0306 18.48C41.7506 18.48 39.5906 15.6 38.8706 14.76L41.5106 13.08C42.2306 13.92 44.0306 15.6 47.0306 15.6C49.1906 15.6 51.1106 15 51.1106 13.44C51.1106 10.08 39.3506 12.24 39.3506 6C39.3506 3.36 41.7506 0.719999 46.3106 0.719999C50.3906 0.719999 52.9106 2.88 53.8706 5.28L50.7506 5.88C50.1506 4.68 48.5906 3.6 46.1906 3.6C43.6706 3.6 42.4706 4.8 42.4706 6C42.4706 9.24 54.2306 6.96 54.2306 13.44C54.2306 17.04 51.1106 18.48 47.0306 18.48ZM54.9666 18L60.7266 1.2H67.9266L73.6866 18H70.4466L68.6466 12.72L59.5266 14.28L58.2066 18H54.9666ZM60.4866 11.28L67.6866 10.08L65.6466 4.08H63.0066L60.4866 11.28ZM75.3619 18V1.2H77.8819L87.6019 12.6V1.2H90.7219V18H88.2019L78.4819 6.6V18H75.3619ZM102.116 18.48C96.1163 18.48 92.8763 14.16 92.8763 9.6C92.8763 5.04 96.1163 0.719999 102.116 0.719999C108.116 0.719999 111.356 5.04 111.356 9.6C111.356 14.16 108.116 18.48 102.116 18.48ZM102.116 15.6C105.716 15.6 108.236 12.96 108.236 9.6C108.236 6.24 105.716 3.6 102.116 3.6C98.5163 3.6 95.9963 6.24 95.9963 9.6C95.9963 12.96 98.5163 15.6 102.116 15.6ZM117.592 18L111.592 1.2H114.832L119.752 14.88H122.152L127.072 1.2H130.312L124.312 18H117.592ZM127.904 18L133.664 1.2H140.864L146.624 18H143.384L141.584 12.72L132.464 14.28L131.144 18H127.904ZM133.424 11.28L140.624 10.08L138.584 4.08H135.944L133.424 11.28Z" fill="white"/>
</svg>
