<svg width="143" height="143" viewBox="0 0 143 143" fill="none" xmlns="http://www.w3.org/2000/svg">
<g filter="url(#filter0_f_73_12)">
<mask id="path-1-inside-1_73_12" fill="white">
<path d="M124.654 71.275C124.654 100.784 100.732 124.706 71.223 124.706C41.7137 124.706 17.7917 100.784 17.7917 71.275C17.7917 41.7657 41.7137 17.8438 71.223 17.8438C100.732 17.8438 124.654 41.7657 124.654 71.275ZM23.8908 71.275C23.8908 97.4158 45.0821 118.607 71.223 118.607C97.3638 118.607 118.555 97.4158 118.555 71.275C118.555 45.1341 97.3638 23.9428 71.223 23.9428C45.0821 23.9428 23.8908 45.1341 23.8908 71.275Z"/>
</mask>
<path d="M124.654 71.275C124.654 100.784 100.732 124.706 71.223 124.706C41.7137 124.706 17.7917 100.784 17.7917 71.275C17.7917 41.7657 41.7137 17.8438 71.223 17.8438C100.732 17.8438 124.654 41.7657 124.654 71.275ZM23.8908 71.275C23.8908 97.4158 45.0821 118.607 71.223 118.607C97.3638 118.607 118.555 97.4158 118.555 71.275C118.555 45.1341 97.3638 23.9428 71.223 23.9428C45.0821 23.9428 23.8908 45.1341 23.8908 71.275Z" fill="#D9D9D9"/>
<path d="M124.654 71.275C124.654 100.784 100.732 124.706 71.223 124.706C41.7137 124.706 17.7917 100.784 17.7917 71.275C17.7917 41.7657 41.7137 17.8438 71.223 17.8438C100.732 17.8438 124.654 41.7657 124.654 71.275ZM23.8908 71.275C23.8908 97.4158 45.0821 118.607 71.223 118.607C97.3638 118.607 118.555 97.4158 118.555 71.275C118.555 45.1341 97.3638 23.9428 71.223 23.9428C45.0821 23.9428 23.8908 45.1341 23.8908 71.275Z" stroke="#D1D1D1" stroke-width="0.448061" mask="url(#path-1-inside-1_73_12)"/>
</g>
<mask id="path-2-inside-2_73_12" fill="white">
<path d="M124.206 71.275C124.206 100.784 100.284 124.706 70.7749 124.706C41.2656 124.706 17.3436 100.784 17.3436 71.275C17.3436 41.7657 41.2656 17.8438 70.7749 17.8438C100.284 17.8438 124.206 41.7657 124.206 71.275ZM23.4427 71.275C23.4427 97.4158 44.634 118.607 70.7749 118.607C96.9157 118.607 118.107 97.4158 118.107 71.275C118.107 45.1341 96.9157 23.9428 70.7749 23.9428C44.634 23.9428 23.4427 45.1341 23.4427 71.275Z"/>
</mask>
<path d="M124.206 71.275C124.206 100.784 100.284 124.706 70.7749 124.706C41.2656 124.706 17.3436 100.784 17.3436 71.275C17.3436 41.7657 41.2656 17.8438 70.7749 17.8438C100.284 17.8438 124.206 41.7657 124.206 71.275ZM23.4427 71.275C23.4427 97.4158 44.634 118.607 70.7749 118.607C96.9157 118.607 118.107 97.4158 118.107 71.275C118.107 45.1341 96.9157 23.9428 70.7749 23.9428C44.634 23.9428 23.4427 45.1341 23.4427 71.275Z" fill="#D9D9D9" stroke="#D1D1D1" stroke-width="0.448061" mask="url(#path-2-inside-2_73_12)"/>
<defs>
<filter id="filter0_f_73_12" x="0.160563" y="0.212564" width="142.125" height="142.126" filterUnits="userSpaceOnUse" color-interpolation-filters="sRGB">
<feFlood flood-opacity="0" result="BackgroundImageFix"/>
<feBlend mode="normal" in="SourceGraphic" in2="BackgroundImageFix" result="shape"/>
<feGaussianBlur stdDeviation="8.81559" result="effect1_foregroundBlur_73_12"/>
</filter>
</defs>
</svg>
